<?xml version="1.0" encoding="utf-8"?>
<!-- Generator: Adobe Illustrator 15.1.0, SVG Export Plug-In . SVG Version: 6.00 Build 0)  -->
<!DOCTYPE svg PUBLIC "-//W3C//DTD SVG 1.1//EN" "http://www.w3.org/Graphics/SVG/1.1/DTD/svg11.dtd">
<svg version="1.1" id="Layer_1" xmlns="http://www.w3.org/2000/svg" xmlns:xlink="http://www.w3.org/1999/xlink" x="0px" y="0px"
	 width="300px" height="150px" viewBox="0 231 300 150" enable-background="new 0 231 300 150" xml:space="preserve">
<g>
	<path fill="#231F20" d="M250.549,353.454c-14.938-0.003-28.677-6.745-37.818-18.533c-9.139,11.788-22.878,18.53-37.817,18.533
		c-26.38-0.005-47.853-21.481-47.867-47.873c0.015-26.39,21.487-47.868,47.867-47.881c14.942,0.008,28.681,6.753,37.814,18.538
		c9.142-11.788,22.881-18.534,37.821-18.538c26.376,0.006,47.847,21.484,47.861,47.881
		C298.396,331.973,276.926,353.449,250.549,353.454L250.549,353.454z M250.55,277.803c-15.292,0.021-27.751,12.482-27.773,27.779
		c0.008,5.646,1.701,11.082,4.894,15.719c5.19,7.533,13.742,12.043,22.878,12.059c15.29-0.028,27.747-12.491,27.767-27.778
		c-0.013-10.189-5.583-19.547-14.539-24.418C259.744,278.972,255.17,277.809,250.55,277.803L250.55,277.803z M174.913,277.797
		c-6.044,0.011-11.786,1.924-16.606,5.532c-0.712,0.53-1.402,1.102-2.058,1.697c-5.776,5.253-9.097,12.746-9.11,20.556
		c0.003,2.35,0.301,4.685,0.883,6.938c3.163,12.246,14.221,20.816,26.892,20.839c12.669-0.022,23.726-8.593,26.886-20.839
		c0.582-2.254,0.878-4.59,0.881-6.939c-0.011-7.808-3.329-15.3-9.106-20.555c-0.656-0.597-1.349-1.168-2.057-1.697
		C186.696,279.721,180.954,277.808,174.913,277.797z"/>
	<path fill="#FFFFFF" d="M250.549,258.291c26.105,0.006,47.255,21.165,47.27,47.29c-0.015,26.12-21.164,47.276-47.27,47.281
		c-15.474-0.002-29.193-7.428-37.818-18.917c-8.622,11.489-22.352,18.915-37.817,18.917c-26.116-0.005-47.261-21.161-47.276-47.281
		c0.014-26.125,21.16-47.277,47.276-47.29c15.463,0.008,29.195,7.435,37.814,18.921
		C221.353,265.723,235.075,258.294,250.549,258.291 M174.913,333.95c13.209-0.024,24.303-9.052,27.458-21.281
		c0.585-2.267,0.897-4.641,0.9-7.088c-0.011-8.324-3.595-15.805-9.301-20.992c-0.672-0.611-1.371-1.189-2.1-1.734
		c-4.729-3.539-10.599-5.639-16.959-5.649c-6.362,0.012-12.231,2.11-16.962,5.649c-0.727,0.545-1.429,1.123-2.099,1.734
		c-5.707,5.188-9.291,12.668-9.305,20.992c0.004,2.447,0.317,4.821,0.902,7.088C150.608,324.898,161.7,333.927,174.913,333.95
		 M250.547,333.95c15.656-0.028,28.34-12.706,28.359-28.369c-0.014-10.771-6.013-20.132-14.849-24.939
		c-4.015-2.183-8.617-3.424-13.509-3.431c-15.663,0.021-28.341,12.702-28.364,28.369c0.009,5.963,1.856,11.491,5,16.056
		C232.298,329.061,240.85,333.933,250.547,333.95 M250.549,257.108L250.549,257.108c-7.756,0.001-15.164,1.779-22.018,5.283
		c-6.079,3.107-11.517,7.547-15.804,12.892c-4.285-5.342-9.72-9.78-15.803-12.889c-6.854-3.504-14.26-5.282-22.012-5.286
		c-12.947,0.006-25.116,5.049-34.263,14.2c-9.148,9.149-14.189,21.322-14.196,34.272c0.007,12.949,5.048,25.122,14.196,34.271
		c9.148,9.152,21.316,14.191,34.262,14.194c7.752-0.001,15.159-1.778,22.014-5.279c6.081-3.109,11.517-7.549,15.804-12.891
		c4.287,5.343,9.723,9.781,15.802,12.891c6.854,3.501,14.261,5.278,22.017,5.279c26.702-0.005,48.438-21.745,48.452-48.464
		C298.986,278.858,277.251,257.114,250.549,257.108L250.549,257.108z M174.913,332.769c-12.401-0.024-23.224-8.413-26.318-20.396
		c-0.57-2.207-0.861-4.493-0.864-6.795c0.012-7.641,3.263-14.974,8.917-20.115c0.64-0.582,1.316-1.141,2.012-1.661
		c4.72-3.531,10.34-5.403,16.256-5.414c5.908,0.011,11.529,1.883,16.247,5.414c0.692,0.518,1.37,1.077,2.013,1.662
		c5.654,5.143,8.904,12.475,8.913,20.118c-0.003,2.298-0.293,4.583-0.862,6.791C198.135,324.356,187.314,332.745,174.913,332.769
		L174.913,332.769z M250.547,332.769c-8.941-0.017-17.311-4.43-22.389-11.804c-3.126-4.538-4.782-9.859-4.791-15.386
		c0.022-14.968,12.217-27.165,27.184-27.186c4.52,0.006,8.996,1.144,12.942,3.288c8.766,4.768,14.218,13.926,14.23,23.9
		C277.705,320.542,265.514,332.739,250.547,332.769L250.547,332.769z"/>
</g>
<g>
	<path fill="#231F20" d="M112.213,353.46c-5.178,0-9.476-3.876-9.998-9.02c-0.034-0.336-0.051-0.682-0.051-1.024v-99.318
		c0-0.591,0.055-1.186,0.172-1.817l0.008-0.059c0.006-0.049,0.013-0.099,0.023-0.148c0.157-0.767,0.42-1.541,0.784-2.301
		c1.661-3.476,5.217-5.723,9.062-5.723c5.537,0,10.042,4.507,10.042,10.048v99.318C122.255,348.955,117.75,353.46,112.213,353.46z"
		/>
	<path fill="#FFFFFF" d="M112.213,234.642c5.22,0,9.451,4.234,9.451,9.457v99.318c0,5.219-4.23,9.453-9.451,9.453
		c-4.907,0-8.926-3.722-9.409-8.486c-0.032-0.318-0.048-0.641-0.048-0.967v-99.318l0,0c0-0.586,0.06-1.156,0.162-1.711
		c0.012-0.064,0.016-0.131,0.029-0.195c0.156-0.759,0.413-1.481,0.738-2.164C105.205,236.846,108.442,234.642,112.213,234.642
		 M112.213,233.459c-4.071,0-7.837,2.378-9.596,6.06c-0.384,0.802-0.663,1.623-0.83,2.437c-0.012,0.063-0.022,0.125-0.029,0.19
		l-0.005,0.036c-0.122,0.662-0.18,1.292-0.18,1.917v99.317c0,0.363,0.018,0.727,0.054,1.086c0.552,5.444,5.102,9.55,10.585,9.55
		c5.862,0,10.633-4.77,10.633-10.636v-99.319C122.847,238.232,118.075,233.459,112.213,233.459L112.213,233.459z"/>
</g>
<g>
	<path fill="#231F20" d="M85.103,377.139c-3.585,0-6.923-1.923-8.712-5.02l-12.222-20.975c-4.745,1.538-9.682,2.315-14.679,2.315
		c-17.075,0-32.956-9.174-41.479-23.941c-4.2-7.273-6.419-15.54-6.419-23.906c-0.014-17.06,9.161-32.959,23.942-41.493
		c7.261-4.203,15.513-6.426,23.862-6.426h0.072c17.034,0,32.914,9.174,41.442,23.942c4.201,7.278,6.421,15.546,6.421,23.906
		c0.012,13.556-5.73,26.482-15.77,35.546l12.226,20.976c0.341,0.592,0.623,1.216,0.837,1.856c1.499,4.506-0.398,9.5-4.512,11.877
		c-0.392,0.226-0.8,0.426-1.212,0.596c-1.006,0.412-2.07,0.656-3.16,0.726C85.527,377.132,85.315,377.139,85.103,377.139z
		 M49.431,277.797c-4.902,0-9.566,1.253-13.863,3.722c-8.551,4.938-13.872,14.17-13.885,24.094c0,4.888,1.254,9.551,3.727,13.861
		c4.938,8.559,14.166,13.879,24.082,13.886c4.903,0,9.563-1.25,13.853-3.72c8.559-4.94,13.883-14.175,13.895-24.099
		c0-4.896-1.253-9.556-3.725-13.853C68.58,283.132,59.353,277.808,49.431,277.797L49.431,277.797z"/>
	<path fill="#FFFFFF" d="M49.468,258.284c16.299,0,32.188,8.508,40.931,23.647c4.284,7.425,6.341,15.596,6.341,23.61
		c0.011,13.295-5.639,26.324-15.932,35.426l12.468,21.394c0.327,0.565,0.587,1.15,0.785,1.747c1.39,4.173-0.291,8.89-4.245,11.174
		c-0.373,0.217-0.753,0.404-1.141,0.561c-0.967,0.398-1.972,0.621-2.973,0.685c-0.201,0.013-0.4,0.02-0.6,0.02
		c-3.276,0-6.453-1.696-8.201-4.725l-12.463-21.388c-4.888,1.637-9.949,2.434-14.948,2.434h-0.035
		c-16.3,0-32.192-8.503-40.933-23.646c-4.283-7.419-6.341-15.59-6.341-23.611c-0.013-16.314,8.494-32.232,23.647-40.98
		c7.402-4.285,15.548-6.347,23.566-6.347c0.012,0,0.024,0,0.036,0C49.444,258.284,49.455,258.284,49.468,258.284 M49.49,333.95
		c4.827,0,9.652-1.21,14.148-3.799c9.12-5.263,14.18-14.783,14.191-24.609c0-4.816-1.218-9.654-3.804-14.148
		c-5.255-9.116-14.771-14.178-24.594-14.188c-4.815,0-9.651,1.21-14.158,3.801c-9.109,5.261-14.168,14.772-14.181,24.605
		c0,4.811,1.221,9.651,3.806,14.155C30.152,328.876,39.667,333.943,49.49,333.95 M49.468,257.102H49.43h-0.034
		c-8.453,0-16.807,2.251-24.159,6.506C10.273,272.246,0.986,288.342,1,305.612c0,8.47,2.248,16.839,6.5,24.201
		c8.629,14.949,24.706,24.237,41.956,24.237h0.035c4.9,0,9.742-0.738,14.407-2.198l11.983,20.565
		c1.893,3.274,5.426,5.311,9.223,5.311c0.223,0,0.451-0.007,0.675-0.021c1.155-0.074,2.282-0.333,3.348-0.771
		c0.435-0.179,0.868-0.391,1.284-0.63c4.354-2.515,6.363-7.803,4.775-12.574c-0.227-0.681-0.524-1.341-0.884-1.963l-11.988-20.566
		c9.944-9.159,15.621-22.1,15.61-35.662c0-8.464-2.248-16.832-6.499-24.201C82.788,266.39,66.712,257.102,49.468,257.102
		L49.468,257.102z M49.492,332.769c-9.707-0.007-18.737-5.216-23.57-13.592c-2.42-4.216-3.647-8.783-3.647-13.564
		c0.013-9.713,5.22-18.749,13.59-23.581c4.205-2.417,8.77-3.643,13.567-3.643C59.14,278.4,68.172,283.61,73,291.985
		c2.419,4.204,3.646,8.767,3.646,13.558c-0.011,9.713-5.222,18.751-13.6,23.586C58.85,331.545,54.289,332.769,49.492,332.769
		L49.492,332.769L49.492,332.769z"/>
</g>
<linearGradient id="SVGID_1_" gradientUnits="userSpaceOnUse" x1="212.7271" y1="230.8325" x2="212.7271" y2="382.3111" gradientTransform="matrix(1 0 0 -1 0 613)">
	<stop  offset="0" style="stop-color:#1E1E1E"/>
	<stop  offset="1" style="stop-color:#666666"/>
</linearGradient>
<path fill="url(#SVGID_1_)" d="M250.549,258.291c-15.474,0.003-29.196,7.432-37.821,18.921
	c-8.619-11.487-22.352-18.914-37.814-18.921c-26.116,0.013-47.261,21.165-47.276,47.29c0.014,26.12,21.16,47.276,47.276,47.281
	c15.465-0.002,29.195-7.428,37.817-18.917c8.625,11.489,22.345,18.915,37.818,18.917c26.105-0.005,47.255-21.161,47.27-47.281
	C297.804,279.456,276.654,258.297,250.549,258.291z M174.913,333.95c-15.66-0.028-28.339-12.705-28.365-28.369
	c0.026-15.668,12.704-28.349,28.365-28.376c15.655,0.027,28.339,12.708,28.358,28.376
	C203.252,321.245,190.568,333.922,174.913,333.95z M250.549,333.95c-15.663-0.028-28.341-12.705-28.364-28.369
	c0.023-15.668,12.7-28.349,28.364-28.369c15.659,0.021,28.339,12.701,28.366,28.369C278.888,321.245,266.209,333.922,250.549,333.95
	z"/>
<linearGradient id="SVGID_2_" gradientUnits="userSpaceOnUse" x1="121.853" y1="319.2471" x2="103.1128" y2="319.2471" gradientTransform="matrix(1 0 0 -1 0 613)">
	<stop  offset="0" style="stop-color:#1E1E1E"/>
	<stop  offset="1" style="stop-color:#666666"/>
</linearGradient>
<path fill="url(#SVGID_2_)" d="M102.756,343.415v-99.318c0-5.223,4.224-9.456,9.457-9.456l0,0c5.22,0,9.451,4.233,9.451,9.456l0,0
	v99.318c0,5.219-4.23,9.453-9.451,9.453l0,0C106.98,352.869,102.756,348.635,102.756,343.415L102.756,343.415z"/>
<linearGradient id="SVGID_3_" gradientUnits="userSpaceOnUse" x1="49.4604" y1="234.7065" x2="49.4604" y2="379.1833" gradientTransform="matrix(1 0 0 -1 0 613)">
	<stop  offset="0" style="stop-color:#1E1E1E"/>
	<stop  offset="1" style="stop-color:#666666"/>
</linearGradient>
<path fill="url(#SVGID_3_)" d="M93.277,362.361l-12.468-21.395c10.292-9.102,15.943-22.131,15.932-35.425
	c0-8.015-2.057-16.187-6.341-23.611c-8.751-15.151-24.655-23.659-40.968-23.646c-8.03-0.006-16.189,2.056-23.602,6.346
	c-15.153,8.749-23.66,24.667-23.647,40.981c0,8.021,2.058,16.192,6.341,23.61c8.74,15.144,24.632,23.646,40.933,23.646h0.035
	c4.999,0,10.061-0.798,14.948-2.434l12.463,21.388c1.749,3.028,4.924,4.725,8.201,4.725c1.597,0,3.225-0.403,4.714-1.265
	C94.336,372.672,95.886,366.884,93.277,362.361z M24.897,319.768c-2.584-4.504-3.806-9.344-3.806-14.155
	c0.013-9.832,5.072-19.346,14.181-24.604c4.508-2.592,9.343-3.802,14.158-3.802c9.823,0.012,19.339,5.072,24.594,14.188
	c2.585,4.494,3.804,9.331,3.804,14.148c-0.011,9.826-5.071,19.347-14.191,24.609c-4.496,2.589-9.321,3.8-14.148,3.8
	C39.667,333.943,30.152,328.876,24.897,319.768z"/>
<linearGradient id="SVGID_4_" gradientUnits="userSpaceOnUse" x1="79.4907" y1="235.7188" x2="79.4907" y2="376.7931" gradientTransform="matrix(1 0 0 -1 0 613)">
	<stop  offset="0" style="stop-color:#1E1E1E"/>
	<stop  offset="0.6686" style="stop-color:#666666"/>
</linearGradient>
<path opacity="0.2" fill="url(#SVGID_4_)" enable-background="new    " d="M67.347,338.871l-2.908,11.564l12.463,21.388
	c1.749,3.027,4.924,4.724,8.201,4.724c1.597,0,3.225-0.403,4.714-1.265c4.52-2.61,6.069-8.398,3.46-12.921l-12.469-21.394
	L67.347,338.871z"/>
<linearGradient id="SVGID_5_" gradientUnits="userSpaceOnUse" x1="80.9448" y1="237.0083" x2="80.9448" y2="334.2187" gradientTransform="matrix(1 0 0 -1 0 613)">
	<stop  offset="0" style="stop-color:#1E1E1E"/>
	<stop  offset="0.6686" style="stop-color:#666666"/>
</linearGradient>
<path opacity="0.3" fill="url(#SVGID_5_)" enable-background="new    " d="M67.347,338.871l22.47,36.411
	c4.52-2.61,6.069-8.398,3.46-12.921l-12.469-21.394L67.347,338.871z"/>
<linearGradient id="SVGID_6_" gradientUnits="userSpaceOnUse" x1="174.9106" y1="379.5293" x2="174.9106" y2="232.8985" gradientTransform="matrix(1 0 0 -1 0 613)">
	<stop  offset="0" style="stop-color:#1E1E1E"/>
	<stop  offset="1" style="stop-color:#666666"/>
</linearGradient>
<path opacity="0.3" fill="url(#SVGID_6_)" enable-background="new    " d="M174.91,267.765c-20.886,0-37.816,16.929-37.816,37.814
	c0,20.885,16.93,37.814,37.816,37.814c20.884,0,37.815-16.93,37.815-37.814C212.726,284.692,195.795,267.765,174.91,267.765z
	 M174.913,333.95c-15.66-0.028-28.339-12.706-28.365-28.369c0.026-15.668,12.704-28.349,28.365-28.376
	c15.655,0.027,28.339,12.708,28.358,28.376C203.252,321.244,190.568,333.922,174.913,333.95z"/>
<linearGradient id="SVGID_7_" gradientUnits="userSpaceOnUse" x1="49.4614" y1="379.5293" x2="49.4614" y2="232.8985" gradientTransform="matrix(1 0 0 -1 0 613)">
	<stop  offset="0" style="stop-color:#1E1E1E"/>
	<stop  offset="1" style="stop-color:#666666"/>
</linearGradient>
<path opacity="0.3" fill="url(#SVGID_7_)" enable-background="new    " d="M49.461,267.765c-20.885,0-37.815,16.929-37.815,37.814
	c0,20.885,16.93,37.814,37.815,37.814c20.885,0,37.815-16.93,37.815-37.814C87.276,284.692,70.346,267.765,49.461,267.765z
	 M49.464,333.95c-15.659-0.028-28.339-12.706-28.365-28.369c0.026-15.668,12.706-28.349,28.365-28.376
	c15.656,0.027,28.34,12.708,28.359,28.376C77.804,321.244,65.12,333.922,49.464,333.95z"/>
<linearGradient id="SVGID_8_" gradientUnits="userSpaceOnUse" x1="250.5444" y1="379.5293" x2="250.5444" y2="232.8985" gradientTransform="matrix(1 0 0 -1 0 613)">
	<stop  offset="0" style="stop-color:#1E1E1E"/>
	<stop  offset="1" style="stop-color:#666666"/>
</linearGradient>
<path opacity="0.3" fill="url(#SVGID_8_)" enable-background="new    " d="M250.544,267.765c-20.885,0-37.815,16.929-37.815,37.814
	c0,20.885,16.931,37.814,37.815,37.814s37.815-16.93,37.815-37.814C288.359,284.692,271.43,267.765,250.544,267.765z
	 M250.547,333.95c-15.659-0.028-28.339-12.706-28.365-28.369c0.026-15.668,12.706-28.349,28.365-28.376
	c15.656,0.027,28.34,12.708,28.359,28.376C278.887,321.244,266.203,333.922,250.547,333.95z"/>
<linearGradient id="SVGID_9_" gradientUnits="userSpaceOnUse" x1="212.7285" y1="353.9189" x2="212.7285" y2="278.6432" gradientTransform="matrix(1 0 0 -1 0 613)">
	<stop  offset="0" style="stop-color:#141414"/>
	<stop  offset="1" style="stop-color:#666666"/>
</linearGradient>
<path fill="url(#SVGID_9_)" d="M212.728,277.213c-5.935,7.901-9.45,17.723-9.456,28.368c0.006,10.642,3.521,20.463,9.459,28.365
	c5.928-7.901,9.447-17.724,9.454-28.365C222.178,294.934,218.659,285.113,212.728,277.213z"/>
<linearGradient id="SVGID_10_" gradientUnits="userSpaceOnUse" x1="102.9326" y1="319.2441" x2="111.8016" y2="319.2441" gradientTransform="matrix(1 0 0 -1 0 613)">
	<stop  offset="0" style="stop-color:#1E1E1E"/>
	<stop  offset="1" style="stop-color:#666666"/>
</linearGradient>
<path opacity="0.3" fill="url(#SVGID_10_)" enable-background="new    " d="M112.213,234.642v118.228l0,0
	c-5.233,0-9.457-4.234-9.457-9.453l0,0v-99.318C102.756,238.875,106.98,234.642,112.213,234.642L112.213,234.642"/>
</svg>
